<svg version="1.1" id="Layer_1" xmlns="http://www.w3.org/2000/svg" xmlns:xlink="http://www.w3.org/1999/xlink" x="0px" y="0px"
	 width="100%" viewBox="0 0 250 250" enable-background="new 0 0 250 250" xml:space="preserve">
<path fill="#FAFAFA" opacity="1.000000" stroke="none" 
	d="
M148.000000,251.000000 
	C133.645767,251.000000 119.291542,251.000000 104.770546,250.645096 
	C104.104218,249.876785 103.666206,249.242233 103.095772,249.083481 
	C95.698349,247.024872 88.119560,245.493729 80.900276,242.941910 
	C56.677589,234.379898 37.817554,218.661682 23.031084,197.948624 
	C12.830674,183.659790 6.100384,167.796967 2.909809,150.471542 
	C2.801559,149.883728 1.659948,149.486221 1.000001,149.000000 
	C1.000000,133.979111 1.000000,118.958214 1.347905,103.769341 
	C2.122440,102.940849 2.715343,102.334465 2.950609,101.611664 
	C6.164846,91.736603 8.502178,81.479576 12.678597,72.034309 
	C21.418045,52.269440 35.377155,36.373486 52.831913,23.804192 
	C67.573189,13.188894 83.920563,5.878017 102.029343,2.919497 
	C102.770966,2.798334 103.346886,1.662891 104.000000,1.000001 
	C118.354225,1.000000 132.708450,1.000000 147.230347,1.350605 
	C148.060471,2.126005 148.669113,2.721639 149.393478,2.949855 
	C159.601944,6.166054 170.221146,8.430861 179.963654,12.699792 
	C199.755096,21.371904 215.629425,35.380299 228.197815,52.834095 
	C238.812393,67.574631 246.121918,83.921837 249.080490,102.029549 
	C249.201660,102.771111 250.337112,103.346947 251.000000,104.000000 
	C251.000000,118.354225 251.000000,132.708450 250.645096,147.229446 
	C249.868530,148.061981 249.279373,148.674957 249.050461,149.401443 
	C245.834656,159.607468 243.563492,170.221771 239.292099,179.960205 
	C231.739258,197.180008 219.938568,211.407288 205.277679,223.314667 
	C190.150757,235.600571 173.370224,244.214066 154.199036,248.104004 
	C152.026291,248.544876 150.061325,250.009903 148.000000,251.000000 
M146.118210,242.851730 
	C146.927246,242.654907 147.729904,242.425507 148.546204,242.265900 
	C209.280457,230.390839 250.829041,173.930939 243.827988,112.781403 
	C236.172012,45.911606 174.941620,-1.520866 108.408150,8.979626 
	C62.030518,16.299067 29.796389,42.955868 14.449171,87.105232 
	C-0.979384,131.488571 7.981601,172.574646 40.049217,207.071854 
	C68.317924,237.482330 104.182159,248.590424 146.118210,242.851730 
z"/>
<path fill="#000000" opacity="1.000000" stroke="none" 
	d="
M251.000000,103.531342 
	C250.337112,103.346947 249.201660,102.771111 249.080490,102.029549 
	C246.121918,83.921837 238.812393,67.574631 228.197815,52.834095 
	C215.629425,35.380299 199.755096,21.371904 179.963654,12.699792 
	C170.221146,8.430861 159.601944,6.166054 149.393478,2.949855 
	C148.669113,2.721639 148.060471,2.126005 147.699005,1.350605 
	C182.260269,1.000000 216.520538,1.000000 251.000000,1.000000 
	C251.000000,35.020580 251.000000,69.041634 251.000000,103.531342 
z"/>
<path fill="#000000" opacity="1.000000" stroke="none" 
	d="
M148.468658,251.000000 
	C150.061325,250.009903 152.026291,248.544876 154.199036,248.104004 
	C173.370224,244.214066 190.150757,235.600571 205.277679,223.314667 
	C219.938568,211.407288 231.739258,197.180008 239.292099,179.960205 
	C243.563492,170.221771 245.834656,159.607468 249.050461,149.401443 
	C249.279373,148.674957 249.868530,148.061981 250.645096,147.698105 
	C251.000000,182.260269 251.000000,216.520538 251.000000,251.000000 
	C216.979416,251.000000 182.958374,251.000000 148.468658,251.000000 
z"/>
<path fill="#000000" opacity="1.000000" stroke="none" 
	d="
M103.531342,1.000001 
	C103.346886,1.662891 102.770966,2.798334 102.029343,2.919497 
	C83.920563,5.878017 67.573189,13.188894 52.831913,23.804192 
	C35.377155,36.373486 21.418045,52.269440 12.678597,72.034309 
	C8.502178,81.479576 6.164846,91.736603 2.950609,101.611664 
	C2.715343,102.334465 2.122440,102.940849 1.347905,103.300682 
	C1.000000,69.072701 1.000000,35.145405 1.000000,1.000000 
	C35.020584,1.000000 69.041634,1.000000 103.531342,1.000001 
z"/>
<path fill="#000000" opacity="1.000000" stroke="none" 
	d="
M1.000001,149.468658 
	C1.659948,149.486221 2.801559,149.883728 2.909809,150.471542 
	C6.100384,167.796967 12.830674,183.659790 23.031084,197.948624 
	C37.817554,218.661682 56.677589,234.379898 80.900276,242.941910 
	C88.119560,245.493729 95.698349,247.024872 103.095772,249.083481 
	C103.666206,249.242233 104.104218,249.876785 104.301888,250.645096 
	C69.740082,251.000000 35.480167,251.000000 1.000000,251.000000 
	C1.000000,217.312759 1.000000,183.625031 1.000001,149.468658 
z"/>
<path fill="#030203" opacity="1.000000" stroke="none" 
	d="
M145.686661,242.905975 
	C104.182159,248.590424 68.317924,237.482330 40.049217,207.071854 
	C7.981601,172.574646 -0.979384,131.488571 14.449171,87.105232 
	C29.796389,42.955868 62.030518,16.299067 108.408150,8.979626 
	C174.941620,-1.520866 236.172012,45.911606 243.827988,112.781403 
	C250.829041,173.930939 209.280457,230.390839 148.546204,242.265900 
	C147.729904,242.425507 146.927246,242.654907 145.686661,242.905975 
M125.588821,149.057571 
	C130.507507,145.883347 135.255295,142.391296 140.394699,139.627518 
	C145.189346,137.049133 150.310791,134.992966 155.451813,133.167084 
	C161.135681,131.148407 167.038345,129.752441 172.767929,127.850845 
	C174.020599,127.435097 175.910995,125.973213 175.860870,125.086189 
	C175.558517,119.737045 174.777008,114.414986 174.100601,108.609886 
	C162.515991,111.328682 151.408783,111.017258 141.595093,116.170357 
	C137.232513,118.461121 133.515320,122.029320 127.962761,121.372726 
	C127.147652,121.276337 126.111649,123.059593 125.175720,123.970978 
	C122.340439,126.731888 119.965958,130.525909 116.573868,132.040695 
	C109.082794,135.385941 100.985809,137.343170 93.313805,140.324219 
	C87.069405,142.750534 81.342796,146.145447 79.144432,153.183762 
	C78.235504,156.093781 76.954712,158.192856 73.314812,158.103943 
	C72.322716,158.079712 70.329247,160.666870 70.406677,160.763412 
	C73.772499,164.960587 76.664146,170.001892 80.987709,172.866379 
	C88.927025,178.126450 97.741508,174.590790 106.184174,173.100937 
	C106.768059,172.997910 107.404922,172.520874 107.784599,172.035767 
	C113.605934,164.597885 119.388588,157.129745 125.588821,149.057571 
M106.096527,88.233559 
	C101.662842,87.468079 97.988792,88.831940 94.863007,92.037720 
	C94.098640,92.821640 92.763794,93.875298 91.969673,93.678925 
	C81.915649,91.192757 75.027786,97.067215 68.013962,102.563957 
	C66.357246,103.862320 64.243767,105.253571 63.599442,107.052933 
	C60.550858,115.566513 60.460522,124.417465 61.065128,134.089050 
	C62.344490,132.987167 62.947262,132.480316 63.536701,131.958405 
	C68.151337,127.872368 71.351707,122.097076 78.544411,121.223526 
	C82.278053,120.770073 85.758987,118.499138 89.451767,117.368233 
	C92.823120,116.335747 96.316895,115.162964 99.773949,115.106461 
	C103.048645,115.052948 105.302109,114.177673 107.695580,111.987411 
	C109.733849,110.122185 112.532074,108.402687 115.179893,108.061752 
	C118.485077,107.636169 121.982330,109.029411 125.393562,109.012474 
	C129.144012,108.993851 133.359848,109.213440 136.538666,107.641838 
	C142.569626,104.660141 148.455429,105.298737 154.677124,105.803276 
	C160.642822,106.287056 166.678528,105.907761 173.525345,105.907761 
	C171.942688,101.665878 170.583252,98.312561 169.445526,94.885628 
	C168.446228,91.875603 166.527969,91.367950 163.471802,91.080772 
	C157.085022,90.480637 150.314636,90.043167 144.552017,87.563248 
	C133.640793,82.867638 123.334015,82.402824 112.636337,87.538101 
	C110.997139,88.324982 108.839706,88.032295 106.096527,88.233559 
M146.435455,188.049774 
	C166.843384,174.356079 174.704971,154.299301 176.342346,129.121857 
	C170.785919,131.467010 166.190842,132.852631 162.203049,135.248871 
	C158.392715,137.538467 155.542862,141.474960 151.675735,143.609329 
	C146.760010,146.322418 144.720840,150.318497 143.612915,155.376801 
	C143.127655,157.592270 142.704025,160.804764 141.202682,161.611877 
	C137.956863,163.356720 137.794785,166.162643 136.850235,168.904785 
	C135.941605,171.542618 135.180450,174.419281 133.548645,176.583359 
	C129.320267,182.190964 124.648132,187.463974 120.336288,192.650253 
	C129.519806,193.867249 138.157623,192.496582 146.435455,188.049774 
M151.332581,70.126167 
	C129.821777,52.249878 104.485329,58.120953 85.924461,74.135109 
	C89.749786,73.189766 93.434517,71.120399 97.229614,70.892998 
	C103.172966,70.536873 109.207085,71.265732 115.169174,71.867592 
	C117.485718,72.101456 119.695198,73.294342 121.982147,73.950287 
	C124.481865,74.667259 127.043442,75.176575 129.523956,75.949936 
	C131.407730,76.537239 133.200989,77.411057 135.044739,78.131271 
	C138.599045,79.519676 142.362640,80.522720 145.675034,82.347183 
	C151.690140,85.660294 157.479584,89.302055 166.599915,87.362022 
	C161.157501,81.177216 156.507004,75.892357 151.332581,70.126167 
M166.943863,180.456314 
	C178.801575,171.923965 186.791901,160.535706 191.367844,146.774002 
	C194.261093,138.072830 189.234238,131.567856 180.600113,131.200302 
	C177.819122,141.398956 175.655701,151.584915 172.217529,161.320679 
	C168.639832,171.451569 162.138321,179.895996 153.569122,186.603485 
	C153.799820,187.003723 154.030518,187.403961 154.261230,187.804199 
	C158.302383,185.506638 162.343536,183.209061 166.943863,180.456314 
M163.115372,23.606449 
	C162.327560,23.778273 161.019547,23.721363 160.828598,24.155638 
	C156.856613,33.188622 153.011322,42.277306 149.052933,51.561581 
	C151.226379,52.315884 152.871140,52.886707 154.619858,53.493610 
	C156.696289,48.733280 158.622391,44.317608 160.548477,39.901936 
	C162.054626,44.482006 162.725906,48.830715 162.707458,53.176502 
	C162.690704,57.126976 164.294052,58.827194 168.241440,58.962383 
	C172.180450,49.596119 176.069946,40.347588 180.076065,30.821764 
	C178.081497,29.976931 176.448761,29.285358 174.575104,28.491745 
	C172.555939,33.011623 170.663300,37.248272 168.770660,41.484921 
	C168.015839,37.429787 167.719772,33.610428 168.101624,29.860098 
	C168.461533,26.325567 167.044647,24.614056 163.115372,23.606449 
M197.052734,158.584686 
	C196.074112,161.313828 194.418228,164.012619 194.294189,166.780045 
	C194.150299,169.990646 200.410446,175.188766 204.511978,175.499954 
	C208.404602,175.795303 211.369858,174.005600 212.948196,170.056686 
	C213.441910,168.821442 214.978882,167.798874 216.278763,167.207626 
	C216.699463,167.016296 218.693741,168.699310 218.576920,169.200989 
	C218.185059,170.883865 217.480270,172.724426 216.308868,173.939087 
	C214.710922,175.596054 212.574158,176.733353 210.668396,178.093460 
	C211.001785,178.962387 211.335175,179.831314 211.668564,180.700241 
	C214.670776,180.503708 219.039078,181.463394 220.389008,179.868423 
	C223.145096,176.612076 225.533493,172.053238 225.772720,167.898438 
	C226.102859,162.164841 219.932693,161.092087 215.870911,159.802307 
	C212.257034,158.654739 209.125717,161.157471 207.573105,165.104843 
	C207.073364,166.375366 205.510437,167.427582 204.185745,168.059464 
	C203.753830,168.265488 201.725540,166.663208 201.823776,166.161316 
	C202.152405,164.482437 202.788010,162.632858 203.909470,161.395599 
	C205.482269,159.660400 207.596451,158.415924 209.722504,156.773453 
	C203.587494,152.362015 200.496902,152.894302 197.052734,158.584686 
M153.020645,222.485291 
	C155.613617,229.120560 158.129669,230.241135 164.808441,227.731827 
	C165.739029,227.382172 166.668884,227.030167 167.593475,226.665039 
	C172.311859,224.801819 173.806015,221.625778 172.076782,216.945480 
	C170.121841,211.654327 168.116348,206.381592 166.096466,201.114792 
	C164.518066,196.999207 161.499878,195.799484 157.423584,197.071579 
	C155.685913,197.613876 154.007141,198.348679 152.311249,199.020325 
	C147.573853,200.896545 146.146133,203.969955 147.885925,208.707458 
	C149.487244,213.067856 151.166397,217.399689 153.020645,222.485291 
M136.342499,20.429935 
	C133.190125,15.956675 128.490570,17.869249 124.402298,17.728251 
	C120.296631,17.586655 118.010796,20.092123 117.919800,24.172220 
	C117.786415,30.153471 117.372513,36.206066 118.131577,42.092415 
	C118.446609,44.535454 121.055199,47.557400 123.393173,48.625702 
	C125.867836,49.756454 129.468430,49.530209 132.187210,48.667511 
	C134.342407,47.983646 137.396667,45.510391 137.477325,43.715977 
	C137.816498,36.169308 137.188995,28.579189 136.342499,20.429935 
M223.213409,89.697319 
	C224.089951,88.765816 225.184006,87.959572 225.805130,86.880989 
	C228.393524,82.386200 224.936844,79.043625 223.309174,75.445091 
	C221.478867,71.398567 217.925980,70.205376 213.977524,72.068069 
	C208.720139,74.548264 203.489166,77.087486 198.292618,79.692619 
	C194.389557,81.649300 193.389801,84.744087 195.148651,88.718269 
	C195.685898,89.932167 196.324448,91.100868 196.901489,92.297562 
	C199.962967,98.646637 202.530914,99.519417 209.021912,96.417274 
	C213.518097,94.268471 218.017151,92.125717 223.213409,89.697319 
M96.504181,48.959702 
	C99.398582,52.647923 102.570053,54.665569 107.378586,49.895012 
	C105.896118,48.733425 104.276176,47.589413 102.802139,46.281017 
	C100.330917,44.087498 98.864822,42.129383 99.427422,37.949512 
	C99.900047,34.438103 97.156715,30.155155 94.960762,26.784796 
	C94.042847,25.375969 90.596619,24.512375 88.756989,25.028854 
	C84.545921,26.211124 80.616234,28.395643 76.426979,30.237030 
	C80.610008,39.994434 84.569778,49.231033 88.655960,58.762520 
	C90.726631,57.898388 92.436951,57.184643 94.255661,56.425663 
	C93.334068,54.285549 92.506706,52.822456 92.083290,51.250557 
	C91.669983,49.716156 91.669273,48.070614 91.487427,46.473858 
	C92.985695,47.124413 94.483963,47.774967 96.504181,48.959702 
M31.022181,172.401886 
	C33.507198,171.166138 35.992218,169.930389 39.014370,168.427551 
	C40.619732,174.471344 34.219349,176.039551 33.341019,180.431747 
	C34.201080,181.950577 35.145157,183.617752 36.228027,185.530029 
	C37.495869,184.101517 38.402348,183.129013 39.254395,182.110947 
	C41.756733,179.120972 43.745193,176.362778 48.864166,176.850906 
	C52.052849,177.154984 56.042595,174.312607 58.788342,171.882812 
	C60.252270,170.587311 60.738369,166.884399 60.073120,164.768875 
	C58.859386,160.909180 56.460941,157.422028 54.414402,153.507263 
	C44.998692,158.395615 35.945480,163.095764 26.340057,168.082611 
	C27.986040,169.987213 29.186628,171.376450 31.022181,172.401886 
M47.608673,61.569698 
	C52.020363,65.842789 56.356670,70.197632 60.870525,74.359924 
	C63.826328,77.085518 67.061378,76.951180 70.071892,74.312515 
	C71.565369,73.003502 72.911407,71.521484 74.280853,70.076698 
	C77.455208,66.727715 77.437897,62.960861 74.151855,59.708149 
	C70.730110,56.321121 67.084373,53.149826 63.799229,49.638470 
	C60.822670,46.456955 57.548431,44.294884 53.464260,46.892246 
	C46.673615,51.210796 45.008186,55.379711 47.608673,61.569698 
M194.179108,187.586456 
	C186.024765,175.907867 182.325180,179.464203 171.813782,190.110123 
	C178.339401,197.796097 184.881866,205.501923 191.676361,213.504562 
	C193.304855,212.072769 194.713577,210.834198 196.158524,209.563797 
	C193.854263,206.757202 191.865875,204.335327 189.814713,201.837006 
	C192.756363,198.066788 195.243591,201.260574 197.147171,202.402740 
	C201.148224,204.803467 204.013138,204.634369 206.648956,199.875610 
	C200.545486,198.049973 195.476715,195.120941 194.179108,187.586456 
M66.255257,210.775436 
	C69.492310,204.234192 72.396790,197.498016 76.078445,191.217392 
	C78.715622,186.718597 77.974693,183.967194 73.258644,181.618591 
	C64.198029,187.061722 54.990387,192.593170 45.626827,198.218292 
	C48.151867,200.868774 49.791317,203.771881 54.091015,201.167511 
	C54.843323,200.711823 60.909668,206.339691 60.512936,207.120224 
	C58.215748,211.639603 61.489731,212.824265 63.857800,215.329056 
	C64.738434,213.730774 65.362106,212.598862 66.255257,210.775436 
M99.058357,218.470596 
	C102.766197,216.559509 107.567009,208.599228 106.840721,205.153030 
	C105.113808,196.959030 97.010185,198.369492 91.939590,194.515442 
	C87.719810,204.682617 83.820328,214.078079 79.839279,223.670059 
	C81.869308,224.445297 83.491325,225.064713 85.271713,225.744614 
	C86.829422,222.143524 88.248230,218.863556 89.777824,215.327469 
	C92.888062,216.553543 95.625465,217.632629 99.058357,218.470596 
M178.762115,109.076439 
	C178.954437,114.737183 179.078125,120.402336 179.440536,126.052170 
	C179.478653,126.646553 180.884293,127.221512 181.722244,127.684738 
	C185.849670,129.966339 189.999603,132.207199 194.534409,134.676331 
	C194.674271,131.595825 195.206604,127.966805 194.936462,124.398537 
	C193.852310,110.077095 195.107071,109.352539 178.762115,109.076439 
M197.392700,57.900856 
	C198.441010,56.937805 199.489304,55.974754 200.508240,55.038677 
	C201.985092,56.336136 203.212738,57.414642 203.767670,57.902168 
	C205.726257,56.553432 207.481049,55.345043 209.235840,54.136654 
	C208.707245,54.341423 208.178650,54.546192 207.650055,54.750965 
	C203.895416,50.407227 200.140793,46.063488 196.233536,41.543182 
	C194.660629,43.211594 193.321365,44.632172 191.960892,46.075249 
	C193.243118,47.631100 194.356079,48.981567 196.430176,51.498276 
	C190.463959,56.875797 184.602905,62.158527 179.473740,66.781586 
	C180.846283,68.959991 181.909378,70.647255 182.852234,72.143707 
	C187.872314,67.231125 192.383438,62.816586 197.392700,57.900856 
M32.636204,89.347763 
	C33.985329,89.278374 35.528149,88.746216 36.651451,89.216370 
	C42.918362,91.839378 49.083710,94.705032 55.589050,97.624756 
	C56.549942,95.541794 57.407738,93.682304 58.331692,91.679413 
	C50.567570,88.156914 43.371571,84.892174 36.184002,81.631256 
	C36.896355,79.802864 37.492958,78.271561 38.213402,76.422409 
	C36.182747,75.537560 34.292461,74.713875 32.151752,73.781075 
	C29.651745,79.348610 27.306911,84.570572 24.668356,90.446663 
	C27.633701,90.054771 29.875004,95.394005 32.636204,89.347763 
M119.990150,203.247437 
	C119.602524,205.360580 119.214897,207.473724 118.799751,209.736923 
	C121.270126,209.953186 122.994942,210.104187 125.060875,210.285049 
	C125.060875,218.411514 125.060875,226.178650 125.060875,234.069458 
	C127.364838,234.069458 129.282562,234.069458 131.544769,234.069458 
	C131.544769,225.910446 131.544769,218.018326 131.544769,210.098221 
	C133.488358,209.928665 135.089844,209.788956 136.678802,209.650330 
	C136.678802,207.285843 136.678802,205.242828 136.678802,203.146393 
	C131.200775,203.146393 126.054512,203.146393 119.990150,203.247437 
M184.599701,89.952087 
	C182.863098,87.616455 181.126480,85.280830 179.454819,83.032539 
	C176.324005,85.790451 173.658173,88.138763 171.114746,90.379250 
	C172.728745,94.757431 174.218002,98.962746 175.853424,103.110458 
	C176.235199,104.078720 177.028809,105.511086 177.776154,105.606346 
	C182.394165,106.195007 187.053131,106.462395 192.813278,106.926308 
	C189.950409,100.925385 187.476593,95.739929 184.599701,89.952087 
M158.967560,73.540886 
	C162.452332,77.948624 165.937119,82.356354 169.412582,86.752304 
	C175.978134,84.239799 177.682693,80.928696 174.050186,77.421616 
	C165.887695,69.540939 156.136444,64.343613 145.313797,61.109356 
	C144.595551,60.894718 143.729599,61.174309 143.864990,61.165867 
	C148.527130,64.948471 153.504929,68.987175 158.967560,73.540886 
z"/>
<path fill="#BB1B21" opacity="1.000000" stroke="none" 
	d="
M125.384537,149.363098 
	C119.388588,157.129745 113.605934,164.597885 107.784599,172.035767 
	C107.404922,172.520874 106.768059,172.997910 106.184174,173.100937 
	C97.741508,174.590790 88.927025,178.126450 80.987709,172.866379 
	C76.664146,170.001892 73.772499,164.960587 70.406677,160.763412 
	C70.329247,160.666870 72.322716,158.079712 73.314812,158.103943 
	C76.954712,158.192856 78.235504,156.093781 79.144432,153.183762 
	C81.342796,146.145447 87.069405,142.750534 93.313805,140.324219 
	C100.985809,137.343170 109.082794,135.385941 116.573868,132.040695 
	C119.965958,130.525909 122.340439,126.731888 125.175720,123.970978 
	C126.111649,123.059593 127.147652,121.276337 127.962761,121.372726 
	C133.515320,122.029320 137.232513,118.461121 141.595093,116.170357 
	C151.408783,111.017258 162.515991,111.328682 174.100601,108.609886 
	C174.777008,114.414986 175.558517,119.737045 175.860870,125.086189 
	C175.910995,125.973213 174.020599,127.435097 172.767929,127.850845 
	C167.038345,129.752441 161.135681,131.148407 155.451813,133.167084 
	C150.310791,134.992966 145.189346,137.049133 140.394699,139.627518 
	C135.255295,142.391296 130.507507,145.883347 125.384537,149.363098 
z"/>
<path fill="#BA1B21" opacity="1.000000" stroke="none" 
	d="
M106.509247,88.236237 
	C108.839706,88.032295 110.997139,88.324982 112.636337,87.538101 
	C123.334015,82.402824 133.640793,82.867638 144.552017,87.563248 
	C150.314636,90.043167 157.085022,90.480637 163.471802,91.080772 
	C166.527969,91.367950 168.446228,91.875603 169.445526,94.885628 
	C170.583252,98.312561 171.942688,101.665878 173.525345,105.907761 
	C166.678528,105.907761 160.642822,106.287056 154.677124,105.803276 
	C148.455429,105.298737 142.569626,104.660141 136.538666,107.641838 
	C133.359848,109.213440 129.144012,108.993851 125.393562,109.012474 
	C121.982330,109.029411 118.485077,107.636169 115.179893,108.061752 
	C112.532074,108.402687 109.733849,110.122185 107.695580,111.987411 
	C105.302109,114.177673 103.048645,115.052948 99.773949,115.106461 
	C96.316895,115.162964 92.823120,116.335747 89.451767,117.368233 
	C85.758987,118.499138 82.278053,120.770073 78.544411,121.223526 
	C71.351707,122.097076 68.151337,127.872368 63.536701,131.958405 
	C62.947262,132.480316 62.344490,132.987167 61.065128,134.089050 
	C60.460522,124.417465 60.550858,115.566513 63.599442,107.052933 
	C64.243767,105.253571 66.357246,103.862320 68.013962,102.563957 
	C75.027786,97.067215 81.915649,91.192757 91.969673,93.678925 
	C92.763794,93.875298 94.098640,92.821640 94.863007,92.037720 
	C97.988792,88.831940 101.662842,87.468079 106.509247,88.236237 
z"/>
<path fill="#BA1B21" opacity="1.000000" stroke="none" 
	d="
M146.121918,188.247940 
	C138.157623,192.496582 129.519806,193.867249 120.336288,192.650253 
	C124.648132,187.463974 129.320267,182.190964 133.548645,176.583359 
	C135.180450,174.419281 135.941605,171.542618 136.850235,168.904785 
	C137.794785,166.162643 137.956863,163.356720 141.202682,161.611877 
	C142.704025,160.804764 143.127655,157.592270 143.612915,155.376801 
	C144.720840,150.318497 146.760010,146.322418 151.675735,143.609329 
	C155.542862,141.474960 158.392715,137.538467 162.203049,135.248871 
	C166.190842,132.852631 170.785919,131.467010 176.342346,129.121857 
	C174.704971,154.299301 166.843384,174.356079 146.121918,188.247940 
z"/>
<path fill="#B91A20" opacity="1.000000" stroke="none" 
	d="
M151.594543,70.366837 
	C156.507004,75.892357 161.157501,81.177216 166.599915,87.362022 
	C157.479584,89.302055 151.690140,85.660294 145.675034,82.347183 
	C142.362640,80.522720 138.599045,79.519676 135.044739,78.131271 
	C133.200989,77.411057 131.407730,76.537239 129.523956,75.949936 
	C127.043442,75.176575 124.481865,74.667259 121.982147,73.950287 
	C119.695198,73.294342 117.485718,72.101456 115.169174,71.867592 
	C109.207085,71.265732 103.172966,70.536873 97.229614,70.892998 
	C93.434517,71.120399 89.749786,73.189766 85.924461,74.135109 
	C104.485329,58.120953 129.821777,52.249878 151.594543,70.366837 
z"/>
<path fill="#B71A20" opacity="1.000000" stroke="none" 
	d="
M166.664276,180.683899 
	C162.343536,183.209061 158.302383,185.506638 154.261230,187.804199 
	C154.030518,187.403961 153.799820,187.003723 153.569122,186.603485 
	C162.138321,179.895996 168.639832,171.451569 172.217529,161.320679 
	C175.655701,151.584915 177.819122,141.398956 180.600113,131.200302 
	C189.234238,131.567856 194.261093,138.072830 191.367844,146.774002 
	C186.791901,160.535706 178.801575,171.923965 166.664276,180.683899 
z"/>
<path fill="#F7F7F7" opacity="1.000000" stroke="none" 
	d="
M163.477051,23.756718 
	C167.044647,24.614056 168.461533,26.325567 168.101624,29.860098 
	C167.719772,33.610428 168.015839,37.429787 168.770660,41.484921 
	C170.663300,37.248272 172.555939,33.011623 174.575104,28.491745 
	C176.448761,29.285358 178.081497,29.976931 180.076065,30.821764 
	C176.069946,40.347588 172.180450,49.596119 168.241440,58.962383 
	C164.294052,58.827194 162.690704,57.126976 162.707458,53.176502 
	C162.725906,48.830715 162.054626,44.482006 160.548477,39.901936 
	C158.622391,44.317608 156.696289,48.733280 154.619858,53.493610 
	C152.871140,52.886707 151.226379,52.315884 149.052933,51.561581 
	C153.011322,42.277306 156.856613,33.188622 160.828598,24.155638 
	C161.019547,23.721363 162.327560,23.778273 163.477051,23.756718 
z"/>
<path fill="#F4F4F4" opacity="1.000000" stroke="none" 
	d="
M197.221771,158.249847 
	C200.496902,152.894302 203.587494,152.362015 209.722504,156.773453 
	C207.596451,158.415924 205.482269,159.660400 203.909470,161.395599 
	C202.788010,162.632858 202.152405,164.482437 201.823776,166.161316 
	C201.725540,166.663208 203.753830,168.265488 204.185745,168.059464 
	C205.510437,167.427582 207.073364,166.375366 207.573105,165.104843 
	C209.125717,161.157471 212.257034,158.654739 215.870911,159.802307 
	C219.932693,161.092087 226.102859,162.164841 225.772720,167.898438 
	C225.533493,172.053238 223.145096,176.612076 220.389008,179.868423 
	C219.039078,181.463394 214.670776,180.503708 211.668564,180.700241 
	C211.335175,179.831314 211.001785,178.962387 210.668396,178.093460 
	C212.574158,176.733353 214.710922,175.596054 216.308868,173.939087 
	C217.480270,172.724426 218.185059,170.883865 218.576920,169.200989 
	C218.693741,168.699310 216.699463,167.016296 216.278763,167.207626 
	C214.978882,167.798874 213.441910,168.821442 212.948196,170.056686 
	C211.369858,174.005600 208.404602,175.795303 204.511978,175.499954 
	C200.410446,175.188766 194.150299,169.990646 194.294189,166.780045 
	C194.418228,164.012619 196.074112,161.313828 197.221771,158.249847 
z"/>
<path fill="#F6F6F6" opacity="1.000000" stroke="none" 
	d="
M152.915955,222.114685 
	C151.166397,217.399689 149.487244,213.067856 147.885925,208.707458 
	C146.146133,203.969955 147.573853,200.896545 152.311249,199.020325 
	C154.007141,198.348679 155.685913,197.613876 157.423584,197.071579 
	C161.499878,195.799484 164.518066,196.999207 166.096466,201.114792 
	C168.116348,206.381592 170.121841,211.654327 172.076782,216.945480 
	C173.806015,221.625778 172.311859,224.801819 167.593475,226.665039 
	C166.668884,227.030167 165.739029,227.382172 164.808441,227.731827 
	C158.129669,230.241135 155.613617,229.120560 152.915955,222.114685 
M164.954071,219.837814 
	C163.646072,215.366333 162.533310,210.820816 160.886322,206.477890 
	C160.497589,205.452881 158.248779,204.470367 156.964767,204.594742 
	C154.738617,204.810394 153.607010,206.198166 154.800430,208.804672 
	C156.163879,211.782547 157.280228,214.902695 158.189819,218.051743 
	C159.274521,221.807098 161.320190,222.268005 164.954071,219.837814 
z"/>
<path fill="#F6F6F6" opacity="1.000000" stroke="none" 
	d="
M136.628906,20.717455 
	C137.188995,28.579189 137.816498,36.169308 137.477325,43.715977 
	C137.396667,45.510391 134.342407,47.983646 132.187210,48.667511 
	C129.468430,49.530209 125.867836,49.756454 123.393173,48.625702 
	C121.055199,47.557400 118.446609,44.535454 118.131577,42.092415 
	C117.372513,36.206066 117.786415,30.153471 117.919800,24.172220 
	C118.010796,20.092123 120.296631,17.586655 124.402298,17.728251 
	C128.490570,17.869249 133.190125,15.956675 136.628906,20.717455 
M130.105408,24.715822 
	C127.665977,24.059975 124.815735,23.164986 124.452332,26.905603 
	C124.055672,30.988523 124.111351,35.164349 124.526917,39.242920 
	C124.631264,40.267036 126.812439,41.653278 128.142395,41.778736 
	C129.041336,41.863533 130.933228,40.069736 130.980270,39.051510 
	C131.192230,34.463985 130.904037,29.853361 130.105408,24.715822 
z"/>
<path fill="#F6F6F6" opacity="1.000000" stroke="none" 
	d="
M222.864166,89.838791 
	C218.017151,92.125717 213.518097,94.268471 209.021912,96.417274 
	C202.530914,99.519417 199.962967,98.646637 196.901489,92.297562 
	C196.324448,91.100868 195.685898,89.932167 195.148651,88.718269 
	C193.389801,84.744087 194.389557,81.649300 198.292618,79.692619 
	C203.489166,77.087486 208.720139,74.548264 213.977524,72.068069 
	C217.925980,70.205376 221.478867,71.398567 223.309174,75.445091 
	C224.936844,79.043625 228.393524,82.386200 225.805130,86.880989 
	C225.184006,87.959572 224.089951,88.765816 222.864166,89.838791 
M205.457642,90.895111 
	C209.337128,89.057411 213.328873,87.412254 217.023849,85.258102 
	C218.057037,84.655762 219.060150,81.822311 218.599350,81.288902 
	C217.629501,80.166267 215.449707,79.069801 214.181244,79.428665 
	C211.206528,80.270210 208.467896,81.958076 205.648254,83.333191 
	C200.943771,85.627502 200.855972,86.375610 205.457642,90.895111 
z"/>
<path fill="#F6F6F6" opacity="1.000000" stroke="none" 
	d="
M96.243210,48.692612 
	C94.483963,47.774967 92.985695,47.124413 91.487427,46.473862 
	C91.669273,48.070614 91.669983,49.716156 92.083290,51.250557 
	C92.506706,52.822456 93.334068,54.285549 94.255661,56.425663 
	C92.436951,57.184643 90.726631,57.898388 88.655960,58.762520 
	C84.569778,49.231033 80.610008,39.994434 76.426979,30.237030 
	C80.616234,28.395643 84.545921,26.211124 88.756989,25.028854 
	C90.596619,24.512375 94.042847,25.375969 94.960762,26.784796 
	C97.156715,30.155155 99.900047,34.438103 99.427422,37.949512 
	C98.864822,42.129383 100.330917,44.087498 102.802139,46.281017 
	C104.276176,47.589413 105.896118,48.733425 107.378586,49.895012 
	C102.570053,54.665569 99.398582,52.647923 96.243210,48.692612 
M86.303741,38.129192 
	C87.890793,41.564899 90.125298,39.114403 91.251427,38.129520 
	C92.077576,37.406986 92.177094,34.711830 91.460854,33.713116 
	C90.839447,32.846645 88.546883,32.729263 87.117462,32.982853 
	C83.888565,33.555683 85.237312,35.632496 86.303741,38.129192 
z"/>
<path fill="#F5F5F5" opacity="1.000000" stroke="none" 
	d="
M30.704697,172.583771 
	C29.186628,171.376450 27.986040,169.987213 26.340057,168.082611 
	C35.945480,163.095764 44.998692,158.395615 54.414402,153.507263 
	C56.460941,157.422028 58.859386,160.909180 60.073120,164.768875 
	C60.738369,166.884399 60.252270,170.587311 58.788342,171.882812 
	C56.042595,174.312607 52.052849,177.154984 48.864166,176.850906 
	C43.745193,176.362778 41.756733,179.120972 39.254395,182.110947 
	C38.402348,183.129013 37.495869,184.101517 36.228027,185.530029 
	C35.145157,183.617752 34.201080,181.950577 33.341019,180.431747 
	C34.219349,176.039551 40.619732,174.471344 39.014370,168.427551 
	C35.992218,169.930389 33.507198,171.166138 30.704697,172.583771 
M52.465000,168.683060 
	C52.351604,166.522263 52.238209,164.361450 52.078747,161.322830 
	C49.038250,162.991531 47.243191,163.976715 45.348152,165.016769 
	C46.949898,167.939056 47.322971,171.864029 52.465000,168.683060 
z"/>
<path fill="#F8F8F8" opacity="1.000000" stroke="none" 
	d="
M47.336067,61.303963 
	C45.008186,55.379711 46.673615,51.210796 53.464260,46.892246 
	C57.548431,44.294884 60.822670,46.456955 63.799229,49.638470 
	C67.084373,53.149826 70.730110,56.321121 74.151855,59.708149 
	C77.437897,62.960861 77.455208,66.727715 74.280853,70.076698 
	C72.911407,71.521484 71.565369,73.003502 70.071892,74.312515 
	C67.061378,76.951180 63.826328,77.085518 60.870525,74.359924 
	C56.356670,70.197632 52.020363,65.842789 47.336067,61.303963 
M62.211971,57.306969 
	C61.500004,56.620255 60.745777,55.971710 60.084347,55.239353 
	C58.400021,53.374397 56.410713,52.390652 54.983898,55.078911 
	C54.340538,56.291080 54.539886,58.799992 55.411674,59.811085 
	C58.277870,63.135258 61.626865,66.043144 64.695686,69.019135 
	C70.134407,65.354095 70.178947,65.053047 66.267517,61.245365 
	C65.086098,60.095272 63.900898,58.949055 62.211971,57.306969 
z"/>
<path fill="#F7F7F7" opacity="1.000000" stroke="none" 
	d="
M194.452789,187.855377 
	C195.476715,195.120941 200.545486,198.049973 206.648956,199.875610 
	C204.013138,204.634369 201.148224,204.803467 197.147171,202.402740 
	C195.243591,201.260574 192.756363,198.066788 189.814713,201.837006 
	C191.865875,204.335327 193.854263,206.757202 196.158524,209.563797 
	C194.713577,210.834198 193.304855,212.072769 191.676361,213.504562 
	C184.881866,205.501923 178.339401,197.796097 171.813782,190.110123 
	C182.325180,179.464203 186.024765,175.907867 194.452789,187.855377 
M188.035583,193.376953 
	C187.548935,191.610809 187.062302,189.844666 186.575668,188.078506 
	C184.542221,188.786682 182.508774,189.494843 179.926071,190.394302 
	C182.042923,192.935837 183.288544,194.431335 184.673630,196.094299 
	C185.734863,195.272629 186.632019,194.578003 188.035583,193.376953 
z"/>
<path fill="#F5F5F5" opacity="1.000000" stroke="none" 
	d="
M66.120514,211.121185 
	C65.362106,212.598862 64.738434,213.730774 63.857800,215.329056 
	C61.489731,212.824265 58.215748,211.639603 60.512936,207.120224 
	C60.909668,206.339691 54.843323,200.711823 54.091015,201.167511 
	C49.791317,203.771881 48.151867,200.868774 45.626827,198.218292 
	C54.990387,192.593170 64.198029,187.061722 73.258644,181.618591 
	C77.974693,183.967194 78.715622,186.718597 76.078445,191.217392 
	C72.396790,197.498016 69.492310,204.234192 66.120514,211.121185 
z"/>
<path fill="#F5F5F5" opacity="1.000000" stroke="none" 
	d="
M98.710617,218.591156 
	C95.625465,217.632629 92.888062,216.553543 89.777824,215.327469 
	C88.248230,218.863556 86.829422,222.143524 85.271713,225.744614 
	C83.491325,225.064713 81.869308,224.445297 79.839279,223.670059 
	C83.820328,214.078079 87.719810,204.682617 91.939590,194.515442 
	C97.010185,198.369492 105.113808,196.959030 106.840721,205.153030 
	C107.567009,208.599228 102.766197,216.559509 98.710617,218.591156 
M94.303825,210.530884 
	C97.243484,212.094315 99.093292,210.554352 99.037308,207.914001 
	C99.002960,206.294434 96.966583,204.717300 95.829231,203.121109 
	C95.100113,203.403992 94.371002,203.686890 93.641884,203.969772 
	C93.641884,206.039261 93.641884,208.108749 94.303825,210.530884 
z"/>
<path fill="#B81A20" opacity="1.000000" stroke="none" 
	d="
M179.218262,108.994659 
	C195.107071,109.352539 193.852310,110.077095 194.936462,124.398537 
	C195.206604,127.966805 194.674271,131.595825 194.534409,134.676331 
	C189.999603,132.207199 185.849670,129.966339 181.722244,127.684738 
	C180.884293,127.221512 179.478653,126.646553 179.440536,126.052170 
	C179.078125,120.402336 178.954437,114.737183 179.218262,108.994659 
z"/>
<path fill="#F2F2F2" opacity="1.000000" stroke="none" 
	d="
M197.143646,58.151451 
	C192.383438,62.816586 187.872314,67.231125 182.852234,72.143707 
	C181.909378,70.647255 180.846283,68.959991 179.473740,66.781586 
	C184.602905,62.158527 190.463959,56.875797 196.430176,51.498276 
	C194.356079,48.981567 193.243118,47.631100 191.960892,46.075249 
	C193.321365,44.632172 194.660629,43.211594 196.233536,41.543182 
	C200.140793,46.063488 203.895416,50.407227 207.650055,54.750965 
	C208.178650,54.546192 208.707245,54.341423 209.235840,54.136654 
	C207.481049,55.345043 205.726257,56.553432 203.767670,57.902168 
	C203.212738,57.414642 201.985092,56.336136 200.508240,55.038677 
	C199.489304,55.974754 198.441010,56.937805 197.143646,58.151451 
z"/>
<path fill="#F4F4F4" opacity="1.000000" stroke="none" 
	d="
M32.433979,89.689804 
	C29.875004,95.394005 27.633701,90.054771 24.668356,90.446663 
	C27.306911,84.570572 29.651745,79.348610 32.151752,73.781075 
	C34.292461,74.713875 36.182747,75.537560 38.213402,76.422409 
	C37.492958,78.271561 36.896355,79.802864 36.184002,81.631256 
	C43.371571,84.892174 50.567570,88.156914 58.331692,91.679413 
	C57.407738,93.682304 56.549942,95.541794 55.589050,97.624756 
	C49.083710,94.705032 42.918362,91.839378 36.651451,89.216370 
	C35.528149,88.746216 33.985329,89.278374 32.433979,89.689804 
z"/>
<path fill="#F7F7F7" opacity="1.000000" stroke="none" 
	d="
M120.449203,203.196915 
	C126.054512,203.146393 131.200775,203.146393 136.678802,203.146393 
	C136.678802,205.242828 136.678802,207.285843 136.678802,209.650330 
	C135.089844,209.788956 133.488358,209.928665 131.544769,210.098221 
	C131.544769,218.018326 131.544769,225.910446 131.544769,234.069458 
	C129.282562,234.069458 127.364838,234.069458 125.060875,234.069458 
	C125.060875,226.178650 125.060875,218.411514 125.060875,210.285049 
	C122.994942,210.104187 121.270126,209.953186 118.799751,209.736923 
	C119.214897,207.473724 119.602524,205.360580 120.449203,203.196915 
z"/>
<path fill="#B81A20" opacity="1.000000" stroke="none" 
	d="
M184.801239,90.253281 
	C187.476593,95.739929 189.950409,100.925385 192.813278,106.926308 
	C187.053131,106.462395 182.394165,106.195007 177.776154,105.606346 
	C177.028809,105.511086 176.235199,104.078720 175.853424,103.110458 
	C174.218002,98.962746 172.728745,94.757431 171.114746,90.379250 
	C173.658173,88.138763 176.324005,85.790451 179.454819,83.032539 
	C181.126480,85.280830 182.863098,87.616455 184.801239,90.253281 
z"/>
<path fill="#B51A20" opacity="1.000000" stroke="none" 
	d="
M158.725143,73.283386 
	C153.504929,68.987175 148.527130,64.948471 143.864990,61.165867 
	C143.729599,61.174309 144.595551,60.894718 145.313797,61.109356 
	C156.136444,64.343613 165.887695,69.540939 174.050186,77.421616 
	C177.682693,80.928696 175.978134,84.239799 169.412582,86.752304 
	C165.937119,82.356354 162.452332,77.948624 158.725143,73.283386 
z"/>
<path fill="#0E0E0E" opacity="1.000000" stroke="none" 
	d="
M164.671036,220.112854 
	C161.320190,222.268005 159.274521,221.807098 158.189819,218.051743 
	C157.280228,214.902695 156.163879,211.782547 154.800430,208.804672 
	C153.607010,206.198166 154.738617,204.810394 156.964767,204.594742 
	C158.248779,204.470367 160.497589,205.452881 160.886322,206.477890 
	C162.533310,210.820816 163.646072,215.366333 164.671036,220.112854 
z"/>
<path fill="#121212" opacity="1.000000" stroke="none" 
	d="
M130.450775,24.983442 
	C130.904037,29.853361 131.192230,34.463985 130.980270,39.051510 
	C130.933228,40.069736 129.041336,41.863533 128.142395,41.778736 
	C126.812439,41.653278 124.631264,40.267036 124.526917,39.242920 
	C124.111351,35.164349 124.055672,30.988523 124.452332,26.905603 
	C124.815735,23.164986 127.665977,24.059975 130.450775,24.983442 
z"/>
<path fill="#0C0C0C" opacity="1.000000" stroke="none" 
	d="
M205.083450,90.848885 
	C200.855972,86.375610 200.943771,85.627502 205.648254,83.333191 
	C208.467896,81.958076 211.206528,80.270210 214.181244,79.428665 
	C215.449707,79.069801 217.629501,80.166267 218.599350,81.288902 
	C219.060150,81.822311 218.057037,84.655762 217.023849,85.258102 
	C213.328873,87.412254 209.337128,89.057411 205.083450,90.848885 
z"/>
<path fill="#0F0F0F" opacity="1.000000" stroke="none" 
	d="
M86.167686,37.768814 
	C85.237312,35.632496 83.888565,33.555683 87.117462,32.982853 
	C88.546883,32.729263 90.839447,32.846645 91.460854,33.713116 
	C92.177094,34.711830 92.077576,37.406986 91.251427,38.129520 
	C90.125298,39.114403 87.890793,41.564899 86.167686,37.768814 
z"/>
<path fill="#161616" opacity="1.000000" stroke="none" 
	d="
M52.098602,168.864151 
	C47.322971,171.864029 46.949898,167.939056 45.348152,165.016769 
	C47.243191,163.976715 49.038250,162.991531 52.078747,161.322830 
	C52.238209,164.361450 52.351604,166.522263 52.098602,168.864151 
z"/>
<path fill="#0D0D0D" opacity="1.000000" stroke="none" 
	d="
M62.464699,57.554016 
	C63.900898,58.949055 65.086098,60.095272 66.267517,61.245365 
	C70.178947,65.053047 70.134407,65.354095 64.695686,69.019135 
	C61.626865,66.043144 58.277870,63.135258 55.411674,59.811085 
	C54.539886,58.799992 54.340538,56.291080 54.983898,55.078911 
	C56.410713,52.390652 58.400021,53.374397 60.084347,55.239353 
	C60.745777,55.971710 61.500004,56.620255 62.464699,57.554016 
z"/>
<path fill="#161616" opacity="1.000000" stroke="none" 
	d="
M187.782379,193.630157 
	C186.632019,194.578003 185.734863,195.272629 184.673630,196.094299 
	C183.288544,194.431335 182.042923,192.935837 179.926071,190.394302 
	C182.508774,189.494843 184.542221,188.786682 186.575668,188.078522 
	C187.062302,189.844666 187.548935,191.610809 187.782379,193.630157 
z"/>
<path fill="#111111" opacity="1.000000" stroke="none" 
	d="
M93.972855,210.354553 
	C93.641884,208.108749 93.641884,206.039261 93.641884,203.969772 
	C94.371002,203.686890 95.100113,203.403992 95.829231,203.121109 
	C96.966583,204.717300 99.002960,206.294434 99.037308,207.914001 
	C99.093292,210.554352 97.243484,212.094315 93.972855,210.354553 
z"/>
</svg>